<svg width="200" height="200" viewBox="0 0 200 200" fill="none" xmlns="http://www.w3.org/2000/svg">
<circle cx="100" cy="100" r="99" fill="white" stroke="#2960FF" stroke-width="2" stroke-linejoin="round" stroke-dasharray="6 6"/>
<path d="M114.935 91.3308C114.297 90.6616 113.414 90.2661 112.411 90.2661H107.361V90.2053C107.361 89.4449 107.057 88.7148 106.54 88.2281C106.023 87.711 105.323 87.4068 104.563 87.4068H95.4373C94.6464 87.4068 93.9468 87.711 93.4297 88.2281C92.9125 88.7452 92.6084 89.4449 92.6084 90.2053V90.2661H87.5894C86.5856 90.2661 85.7034 90.6616 85.0646 91.3308C84.4259 91.9696 84 92.8821 84 93.8555V109.004C84 110.008 84.3954 110.89 85.0646 111.529C85.7034 112.167 86.616 112.593 87.5894 112.593H112.411C113.414 112.593 114.297 112.198 114.935 111.529C115.574 110.89 116 109.977 116 109.004V93.8555C116 92.8517 115.605 91.9696 114.935 91.3308ZM114.418 109.004H114.388C114.388 109.551 114.175 110.038 113.81 110.403C113.445 110.768 112.958 110.981 112.411 110.981H87.5894C87.0418 110.981 86.5551 110.768 86.1901 110.403C85.8251 110.038 85.6122 109.551 85.6122 109.004V93.8555C85.6122 93.308 85.8251 92.8213 86.1901 92.4563C86.5551 92.0912 87.0418 91.8783 87.5894 91.8783H93.4601C93.9164 91.8783 94.2814 91.5133 94.2814 91.057V90.1749C94.2814 89.8403 94.403 89.5361 94.616 89.3232C94.8289 89.1103 95.1331 88.9886 95.4677 88.9886H104.563C104.897 88.9886 105.202 89.1103 105.414 89.3232C105.627 89.5361 105.749 89.8403 105.749 90.1749V91.057C105.749 91.5133 106.114 91.8783 106.57 91.8783H112.441C112.989 91.8783 113.475 92.0912 113.84 92.4563C114.205 92.8213 114.418 93.308 114.418 93.8555V109.004Z" fill="#2960FF"/>
<path d="M100 93.9467C97.9315 93.9467 96.0456 94.7984 94.7072 96.1368C93.3384 97.5057 92.5171 99.3612 92.5171 101.43C92.5171 103.498 93.3688 105.384 94.7072 106.722C96.076 108.091 97.9315 108.913 100 108.913C102.068 108.913 103.954 108.061 105.293 106.722C106.662 105.354 107.483 103.498 107.483 101.43C107.483 99.3612 106.631 97.4752 105.293 96.1368C103.954 94.7984 102.068 93.9467 100 93.9467ZM104.137 105.597C103.072 106.631 101.612 107.3 100 107.3C98.3878 107.3 96.9277 106.631 95.8631 105.597C94.7985 104.532 94.1597 103.072 94.1597 101.46C94.1597 99.8479 94.8289 98.3878 95.8631 97.3232C96.9277 96.2585 98.3878 95.6197 100 95.6197C101.612 95.6197 103.072 96.2889 104.137 97.3232C105.202 98.3878 105.84 99.8479 105.84 101.46C105.871 103.072 105.202 104.532 104.137 105.597Z" fill="#2960FF"/>
<path d="M110.829 96.8973C111.652 96.8973 112.319 96.23 112.319 95.4068C112.319 94.5837 111.652 93.9164 110.829 93.9164C110.006 93.9164 109.339 94.5837 109.339 95.4068C109.339 96.23 110.006 96.8973 110.829 96.8973Z" fill="#2960FF"/>
</svg>
