<svg width="64" height="64" viewBox="0 0 64 64" fill="none" xmlns="http://www.w3.org/2000/svg">
<path d="M42.2497 45.75C43.6305 45.75 44.7497 44.6307 44.7497 43.25C44.7497 41.8693 43.6305 40.75 42.2497 40.75C40.869 40.75 39.7498 41.8693 39.7498 43.25C39.7498 44.6307 40.869 45.75 42.2497 45.75Z" fill="#343843"/>
<path d="M29.7499 59.0008H9.99996C7.24297 59.0008 4.99998 56.7578 4.99998 54.0008V33.5009C4.99998 30.7439 7.24297 28.5009 9.99996 28.5009H45.9998C48.7568 28.5009 50.9998 30.7439 50.9998 33.5009V38.5008C50.9998 39.8816 52.119 41.0008 53.4998 41.0008C54.8805 41.0008 55.9998 39.8816 55.9998 38.5008V33.5009C55.9998 27.9869 51.5138 23.5009 45.9998 23.5009H42.9952V14.6842C42.9952 6.58783 36.2662 0.000976562 27.9953 0.000976562C19.7243 0.000976562 12.9953 6.58783 12.9953 14.6842V23.5009H9.99996C4.48598 23.5009 0 27.9869 0 33.5009V54.0008C0 59.5148 4.48598 64.0008 9.99996 64.0008H29.7499C31.1306 64.0008 32.2499 62.8815 32.2499 61.5008C32.2499 60.12 31.1306 59.0008 29.7499 59.0008ZM17.9953 14.6842C17.9953 9.34482 22.4813 5.00096 27.9953 5.00096C33.5092 5.00096 37.9952 9.34482 37.9952 14.6842V23.5009H17.9953V14.6842Z" fill="#343843"/>
<path d="M62.9552 40.7171C61.8324 39.9133 60.2705 40.1719 59.4672 41.2946L47.1446 58.5071C46.8081 58.8973 46.3863 58.9816 46.1603 58.9966C45.9286 59.0119 45.4823 58.9826 45.0895 58.6139L37.126 50.8426C36.1377 49.8781 34.555 49.8977 33.5907 50.8857C32.6264 51.8738 32.6456 53.4566 33.6339 54.4209L41.6113 62.206C41.6188 62.2133 41.6262 62.2205 41.6338 62.2277C42.8297 63.3663 44.4261 63.9997 46.0686 63.9997C46.2097 63.9997 46.3512 63.995 46.4927 63.9855C48.2819 63.8663 49.9526 62.9962 51.0759 61.5984C51.1049 61.5622 51.1329 61.5253 51.1601 61.4875L63.5326 44.2051C64.3363 43.0825 64.0778 41.5208 62.9552 40.7171Z" fill="#2960FF"/>
<path d="M32.75 45.75C34.1307 45.75 35.25 44.6307 35.25 43.25C35.25 41.8693 34.1307 40.75 32.75 40.75C31.3693 40.75 30.25 41.8693 30.25 43.25C30.25 44.6307 31.3693 45.75 32.75 45.75Z" fill="#343843"/>
<path d="M14 45.75C15.3807 45.75 16.5 44.6307 16.5 43.25C16.5 41.8693 15.3807 40.75 14 40.75C12.6193 40.75 11.5 41.8693 11.5 43.25C11.5 44.6307 12.6193 45.75 14 45.75Z" fill="#343843"/>
<path d="M23.375 45.75C24.7557 45.75 25.875 44.6307 25.875 43.25C25.875 41.8693 24.7557 40.75 23.375 40.75C21.9943 40.75 20.875 41.8693 20.875 43.25C20.875 44.6307 21.9943 45.75 23.375 45.75Z" fill="#343843"/>
</svg>
