<svg width="22" height="22" viewBox="0 0 22 22" fill="none" xmlns="http://www.w3.org/2000/svg">
<path d="M11.0001 0.9H11C9.00241 0.9 7.04968 1.49235 5.38874 2.60216C3.72781 3.71196 2.43327 5.28936 1.66882 7.1349C0.904376 8.98043 0.704362 11.0112 1.09407 12.9704C1.48378 14.9296 2.44572 16.7293 3.85823 18.1418C5.27074 19.5543 7.07038 20.5162 9.02959 20.9059C10.9888 21.2956 13.0196 21.0956 14.8651 20.3312C16.7106 19.5667 18.288 18.2722 19.3978 16.6113C20.5076 14.9503 21.1 12.9976 21.1 11V10.9999C21.0968 8.3222 20.0317 5.75509 18.1383 3.86168C16.2449 1.96827 13.6778 0.903159 11.0001 0.9ZM10.9999 19.0818C9.4015 19.0818 7.839 18.6078 6.50999 17.7198C5.18094 16.8317 4.14507 15.5695 3.53338 14.0928C2.92168 12.616 2.76164 10.991 3.07348 9.42332C3.38531 7.8556 4.15503 6.41555 5.28529 5.28529C6.41556 4.15503 7.8556 3.38531 9.42332 3.07347C10.991 2.76163 12.616 2.92168 14.0928 3.53337C15.5695 4.14507 16.8317 5.18093 17.7198 6.50998C18.6078 7.839 19.0818 9.40149 19.0818 10.9999C19.0794 13.1426 18.2272 15.1969 16.7121 16.712C15.1969 18.2272 13.1426 19.0794 10.9999 19.0818Z" fill="#677389" stroke="#677389" stroke-width="0.2"/>
<path d="M16.2256 9.47026L16.2256 9.47024C16.4229 9.28932 16.5402 9.03746 16.5517 8.77007C16.5632 8.50267 16.4681 8.24164 16.2872 8.0444C16.1063 7.84716 15.8544 7.72987 15.587 7.71832C15.3196 7.70678 15.0586 7.80193 14.8613 7.98285L10.1192 12.3299L8.07571 10.2864C7.98275 10.1904 7.87162 10.1137 7.74878 10.0609C7.62566 10.008 7.49325 9.98021 7.35927 9.97904C7.22528 9.97788 7.0924 10.0034 6.96839 10.0541C6.84438 10.1049 6.73171 10.1798 6.63696 10.2746C6.54222 10.3693 6.46729 10.482 6.41655 10.606C6.36581 10.73 6.34028 10.8629 6.34144 10.9969C6.34261 11.1309 6.37045 11.2633 6.42333 11.3864C6.4761 11.5092 6.55275 11.6203 6.64883 11.7133L9.3755 14.44C9.3755 14.44 9.3755 14.44 9.3755 14.44C9.55939 14.6239 9.80719 14.7297 10.0672 14.7353C10.3272 14.741 10.5794 14.646 10.7711 14.4702L16.2256 9.47026Z" fill="#677389" stroke="#677389" stroke-width="0.2"/>
</svg>
