<svg width="14" height="14" viewBox="0 0 14 14" fill="none" xmlns="http://www.w3.org/2000/svg">
<path d="M7.77344 7.001L13.8398 0.934579C14.0534 0.720998 14.0534 0.374717 13.8398 0.161163C13.6262 -0.0523915 13.28 -0.0524188 13.0664 0.161163L6.99999 6.22758L0.933603 0.161163C0.720021 -0.0524188 0.37374 -0.0524188 0.160186 0.161163C-0.0533681 0.374744 -0.0533954 0.721025 0.160186 0.934579L6.22658 7.00097L0.160186 13.0674C-0.0533954 13.281 -0.0533954 13.6272 0.160186 13.8408C0.266963 13.9476 0.406936 14.001 0.546908 14.001C0.686881 14.001 0.826826 13.9476 0.93363 13.8408L6.99999 7.77441L13.0664 13.8408C13.1732 13.9476 13.3131 14.001 13.4531 14.001C13.5931 14.001 13.733 13.9476 13.8398 13.8408C14.0534 13.6272 14.0534 13.2809 13.8398 13.0674L7.77344 7.001Z" fill="white"/>
</svg>
