<svg width="6" height="11" viewBox="0 0 6 11" fill="none" xmlns="http://www.w3.org/2000/svg">
<path d="M0.708452 4.37756C0.0973131 4.99699 0.0972016 6.00287 0.708006 6.62202L0.708452 4.37756ZM0.708452 4.37756L0.708402 4.37761L0.886511 4.55295L0.708618 4.37739C0.708563 4.37744 0.708507 4.3775 0.708452 4.37756ZM1.68775 5.64029L1.68754 5.64008L4.7475 10.3689C4.83358 10.4563 4.94648 10.5 5.05943 10.5C5.172 10.5 5.2846 10.4565 5.37058 10.3696L5.5483 10.5455C5.54831 10.5454 5.54831 10.5454 5.54831 10.5454C5.81676 10.2741 5.81731 9.83493 5.5495 9.56291L1.68775 5.64029Z" fill="#2960FF" stroke="#2960FF" stroke-width="0.5"/>
</svg>
