 <svg width="6" height="11" viewBox="0 0 6 11" fill="none" xmlns="http://www.w3.org/2000/svg">
<path d="M5.29155 6.62244C5.90269 6.00301 5.9028 4.99713 5.29199 4.37798L5.29155 6.62244ZM5.29155 6.62244L5.2916 6.62239L5.11349 6.44705L5.29138 6.62261C5.29144 6.62256 5.29149 6.6225 5.29155 6.62244ZM4.31225 5.35971L4.31246 5.35992L1.2525 0.631131C1.16642 0.543703 1.05352 0.499999 0.940564 0.499999C0.828002 0.499999 0.715395 0.543456 0.62942 0.630372L0.451696 0.454548C0.451692 0.454552 0.451688 0.454556 0.451684 0.45456C0.183241 0.725917 0.182694 1.16507 0.450497 1.43709L4.31225 5.35971Z" fill="#2960FF" stroke="#2960FF" stroke-width="0.5"/>
</svg>
