<svg width="16" height="16" viewBox="0 0 16 16" fill="none" xmlns="http://www.w3.org/2000/svg">
<path d="M15.7241 13.2416H0.275874C0.123531 13.2416 0 13.118 0 12.9657V3.03466C0 2.88232 0.123531 2.75879 0.275874 2.75879H15.7241C15.8765 2.75879 16 2.88232 16 3.03466V12.9657C16 13.1181 15.8764 13.2416 15.7241 13.2416Z" fill="#F5F5F5"/>
<path d="M16 3.56519H0V3.03466C0 2.88232 0.123531 2.75879 0.275874 2.75879H15.7241C15.8765 2.75879 16 2.88232 16 3.03466L16 3.56519Z" fill="#FF4B55"/>
<path d="M16 5.98438H0V6.79075H16V5.98438Z" fill="#FF4B55"/>
<path d="M16 4.37109H0V5.17747H16V4.37109Z" fill="#FF4B55"/>
<path d="M16 8.40308H0.275874C0.123531 8.40308 0 8.27955 0 8.12721V7.59668H16V8.40308Z" fill="#FF4B55"/>
<path d="M16 10.8232H0V11.6296H16V10.8232Z" fill="#FF4B55"/>
<path d="M15.7241 13.2419H0.275874C0.123531 13.2419 0 13.1184 0 12.966V12.4355H16V12.9661C16 13.1184 15.8764 13.2419 15.7241 13.2419Z" fill="#FF4B55"/>
<path d="M16 9.20996H0V10.0163H16V9.20996Z" fill="#FF4B55"/>
<path d="M7.17239 2.75879H0.275874C0.123531 2.75879 0 2.88229 0 3.03463V8.12743C0 8.27978 0.123531 8.40331 0.275874 8.40331H7.17242C7.32477 8.40331 7.4483 8.27978 7.4483 8.12743V3.03463C7.44827 2.88229 7.32474 2.75879 7.17239 2.75879Z" fill="#41479B"/>
<path d="M0.774573 3.39181L0.835635 3.57493L1.02867 3.5764C1.05367 3.57662 1.06401 3.6085 1.04392 3.62334L0.888635 3.73803L0.946885 3.92206C0.954447 3.94587 0.927291 3.96562 0.906947 3.95106L0.749916 3.83884L0.592886 3.95109C0.572542 3.96562 0.545448 3.9459 0.552948 3.92209L0.611198 3.73806L0.455917 3.62337C0.435824 3.6085 0.446167 3.57665 0.471167 3.57643L0.664198 3.57496L0.72526 3.39184C0.733135 3.36809 0.766635 3.36809 0.774573 3.39181Z" fill="#F5F5F5"/>
<path d="M0.774573 4.34979L0.835635 4.53292L1.02867 4.53439C1.05367 4.5346 1.06401 4.56648 1.04392 4.58132L0.888635 4.69601L0.946885 4.88004C0.954447 4.90385 0.927291 4.9236 0.906947 4.90904L0.749916 4.79682L0.592886 4.90907C0.572542 4.9236 0.545448 4.90388 0.552948 4.88007L0.611198 4.69604L0.455917 4.58135C0.435824 4.56648 0.446167 4.53464 0.471167 4.53442L0.664198 4.53295L0.72526 4.34982C0.733135 4.32611 0.766635 4.32611 0.774573 4.34979Z" fill="#F5F5F5"/>
<path d="M0.774573 5.3078L0.835635 5.49093L1.02867 5.4924C1.05367 5.49261 1.06401 5.52449 1.04392 5.53933L0.888635 5.65402L0.946885 5.83805C0.954447 5.86187 0.927291 5.88162 0.906947 5.86705L0.749916 5.75483L0.592886 5.86708C0.572542 5.88162 0.545448 5.8619 0.552948 5.83808L0.611198 5.65405L0.455917 5.53936C0.435824 5.52449 0.446167 5.49265 0.471167 5.49243L0.664198 5.49096L0.72526 5.30783C0.733135 5.28411 0.766635 5.28411 0.774573 5.3078Z" fill="#F5F5F5"/>
<path d="M0.774573 6.26583L0.835635 6.44896L1.02867 6.45043C1.05367 6.45064 1.06401 6.48252 1.04392 6.49736L0.888635 6.61205L0.946885 6.79608C0.954447 6.81989 0.927291 6.83964 0.906947 6.82508L0.749916 6.71286L0.592886 6.82511C0.572542 6.83964 0.545448 6.81993 0.552948 6.79611L0.611198 6.61208L0.455917 6.49739C0.435824 6.48252 0.446167 6.45068 0.471167 6.45046L0.664198 6.44899L0.72526 6.26586C0.733135 6.24211 0.766635 6.24211 0.774573 6.26583Z" fill="#F5F5F5"/>
<path d="M0.774573 7.22386L0.835635 7.40699L1.02867 7.40846C1.05367 7.40868 1.06401 7.44055 1.04392 7.4554L0.888635 7.57008L0.946885 7.75412C0.954447 7.77793 0.927291 7.79768 0.906947 7.78312L0.749916 7.6709L0.592886 7.78315C0.572542 7.79768 0.545448 7.77796 0.552948 7.75415L0.611198 7.57012L0.455917 7.45543C0.435824 7.44055 0.446167 7.40871 0.471167 7.40849L0.664198 7.40702L0.72526 7.22389C0.733135 7.20011 0.766635 7.20011 0.774573 7.22386Z" fill="#F5F5F5"/>
<path d="M1.51774 3.86152L1.5788 4.04464L1.77183 4.04611C1.79683 4.04633 1.80717 4.0782 1.78708 4.09305L1.6318 4.20773L1.69005 4.39176C1.69761 4.41558 1.67046 4.43533 1.65011 4.42076L1.49308 4.30851L1.33605 4.42076C1.31571 4.43529 1.28861 4.41558 1.29611 4.39176L1.35436 4.20773L1.19908 4.09305C1.17899 4.07817 1.18933 4.04633 1.21433 4.04611L1.40736 4.04464L1.46842 3.86152C1.47627 3.83783 1.50983 3.83783 1.51774 3.86152Z" fill="#F5F5F5"/>
<path d="M1.51774 4.81955L1.5788 5.00267L1.77183 5.00414C1.79683 5.00436 1.80717 5.03623 1.78708 5.05108L1.6318 5.16576L1.69005 5.34979C1.69761 5.3736 1.67046 5.39335 1.65011 5.37879L1.49308 5.26654L1.33605 5.37879C1.31571 5.39332 1.28861 5.37364 1.29611 5.34979L1.35436 5.16576L1.19908 5.05108C1.17899 5.0362 1.18933 5.00436 1.21433 5.00414L1.40736 5.00267L1.46842 4.81955C1.47627 4.79583 1.50983 4.79583 1.51774 4.81955Z" fill="#F5F5F5"/>
<path d="M1.51774 5.77755L1.5788 5.96068L1.77183 5.96215C1.79683 5.96237 1.80717 5.99424 1.78708 6.00909L1.6318 6.12377L1.69005 6.3078C1.69761 6.33162 1.67046 6.35137 1.65011 6.3368L1.49308 6.22455L1.33605 6.3368C1.31571 6.35133 1.28861 6.33162 1.29611 6.3078L1.35436 6.12377L1.19908 6.00909C1.17899 5.99421 1.18933 5.96237 1.21433 5.96215L1.40736 5.96068L1.46842 5.77755C1.47627 5.75384 1.50983 5.75384 1.51774 5.77755Z" fill="#F5F5F5"/>
<path d="M1.51774 6.73554L1.5788 6.91866L1.77183 6.92013C1.79683 6.92035 1.80717 6.95223 1.78708 6.96707L1.6318 7.08176L1.69005 7.26579C1.69761 7.2896 1.67046 7.30935 1.65011 7.29479L1.49308 7.18254L1.33605 7.29479C1.31571 7.30932 1.28861 7.2896 1.29611 7.26579L1.35436 7.08176L1.19908 6.96707C1.17899 6.9522 1.18933 6.92035 1.21433 6.92013L1.40736 6.91866L1.46842 6.73554C1.47627 6.71185 1.50983 6.71185 1.51774 6.73554Z" fill="#F5F5F5"/>
<path d="M2.2609 3.39181L2.32197 3.57494L2.515 3.57641C2.54 3.57662 2.55034 3.6085 2.53025 3.62334L2.37497 3.73803L2.43322 3.92206C2.44078 3.94587 2.41362 3.96562 2.39328 3.95106L2.23625 3.83881L2.07921 3.95106C2.05887 3.96559 2.03178 3.94587 2.03928 3.92206L2.09753 3.73803L1.94225 3.62334C1.92215 3.60847 1.9325 3.57662 1.9575 3.57641L2.15053 3.57494L2.21159 3.39181C2.21946 3.36809 2.253 3.36809 2.2609 3.39181Z" fill="#F5F5F5"/>
<path d="M2.2609 4.3498L2.32197 4.53292L2.515 4.53439C2.54 4.53461 2.55034 4.56648 2.53025 4.58133L2.37497 4.69601L2.43322 4.88005C2.44078 4.90386 2.41362 4.92361 2.39328 4.90905L2.23625 4.7968L2.07921 4.90905C2.05887 4.92358 2.03178 4.90386 2.03928 4.88005L2.09753 4.69601L1.94225 4.58133C1.92215 4.56645 1.9325 4.53461 1.9575 4.53439L2.15053 4.53292L2.21159 4.3498C2.21946 4.32611 2.253 4.32611 2.2609 4.3498Z" fill="#F5F5F5"/>
<path d="M2.2609 5.3078L2.32197 5.49093L2.515 5.4924C2.54 5.49262 2.55034 5.52449 2.53025 5.53934L2.37497 5.65403L2.43322 5.83806C2.44078 5.86187 2.41362 5.88162 2.39328 5.86706L2.23625 5.75481L2.07921 5.86706C2.05887 5.88159 2.03178 5.86187 2.03928 5.83806L2.09753 5.65403L1.94225 5.53934C1.92215 5.52446 1.9325 5.49262 1.9575 5.4924L2.15053 5.49093L2.21159 5.3078C2.21946 5.28412 2.253 5.28412 2.2609 5.3078Z" fill="#F5F5F5"/>
<path d="M2.2609 6.26584L2.32197 6.44896L2.515 6.45043C2.54 6.45065 2.55034 6.48252 2.53025 6.49737L2.37497 6.61205L2.43322 6.79608C2.44078 6.8199 2.41362 6.83965 2.39328 6.82508L2.23625 6.71283L2.07921 6.82508C2.05887 6.83962 2.03178 6.8199 2.03928 6.79608L2.09753 6.61205L1.94225 6.49737C1.92215 6.48249 1.9325 6.45065 1.9575 6.45043L2.15053 6.44896L2.21159 6.26584C2.21946 6.24212 2.253 6.24212 2.2609 6.26584Z" fill="#F5F5F5"/>
<path d="M2.2609 7.22387L2.32197 7.40699L2.515 7.40846C2.54 7.40868 2.55034 7.44056 2.53025 7.4554L2.37497 7.57009L2.43322 7.75412C2.44078 7.77793 2.41362 7.79768 2.39328 7.78312L2.23625 7.67087L2.07921 7.78312C2.05887 7.79765 2.03178 7.77793 2.03928 7.75412L2.09753 7.57009L1.94225 7.4554C1.92215 7.44052 1.9325 7.40868 1.9575 7.40846L2.15053 7.40699L2.21159 7.22387C2.21946 7.20012 2.253 7.20012 2.2609 7.22387Z" fill="#F5F5F5"/>
<path d="M3.00602 3.86152L3.06708 4.04464L3.26011 4.04611C3.28511 4.04633 3.29546 4.0782 3.27536 4.09305L3.12008 4.20773L3.17833 4.39176C3.18589 4.41558 3.15874 4.43533 3.13839 4.42076L2.98136 4.30851L2.82433 4.42076C2.80399 4.43529 2.77689 4.41558 2.78439 4.39176L2.84264 4.20773L2.68736 4.09305C2.66727 4.07817 2.67761 4.04633 2.70261 4.04611L2.89564 4.04464L2.95671 3.86152C2.96455 3.83783 2.99811 3.83783 3.00602 3.86152Z" fill="#F5F5F5"/>
<path d="M3.00602 4.81955L3.06708 5.00267L3.26011 5.00414C3.28511 5.00436 3.29546 5.03623 3.27536 5.05108L3.12008 5.16576L3.17833 5.34979C3.18589 5.3736 3.15874 5.39335 3.13839 5.37879L2.98136 5.26654L2.82433 5.37879C2.80399 5.39332 2.77689 5.37364 2.78439 5.34979L2.84264 5.16576L2.68736 5.05108C2.66727 5.0362 2.67761 5.00436 2.70261 5.00414L2.89564 5.00267L2.95671 4.81955C2.96455 4.79583 2.99811 4.79583 3.00602 4.81955Z" fill="#F5F5F5"/>
<path d="M3.00602 5.77755L3.06708 5.96068L3.26011 5.96215C3.28511 5.96237 3.29546 5.99424 3.27536 6.00909L3.12008 6.12377L3.17833 6.3078C3.18589 6.33162 3.15874 6.35137 3.13839 6.3368L2.98136 6.22455L2.82433 6.3368C2.80399 6.35133 2.77689 6.33162 2.78439 6.3078L2.84264 6.12377L2.68736 6.00909C2.66727 5.99421 2.67761 5.96237 2.70261 5.96215L2.89564 5.96068L2.95671 5.77755C2.96455 5.75384 2.99811 5.75384 3.00602 5.77755Z" fill="#F5F5F5"/>
<path d="M3.00602 6.73554L3.06708 6.91866L3.26011 6.92013C3.28511 6.92035 3.29546 6.95223 3.27536 6.96707L3.12008 7.08176L3.17833 7.26579C3.18589 7.2896 3.15874 7.30935 3.13839 7.29479L2.98136 7.18254L2.82433 7.29479C2.80399 7.30932 2.77689 7.2896 2.78439 7.26579L2.84264 7.08176L2.68736 6.96707C2.66727 6.9522 2.67761 6.92035 2.70261 6.92013L2.89564 6.91866L2.95671 6.73554C2.96455 6.71185 2.99811 6.71185 3.00602 6.73554Z" fill="#F5F5F5"/>
<path d="M3.74921 3.39181L3.81028 3.57494L4.00331 3.57641C4.02831 3.57662 4.03865 3.6085 4.01856 3.62334L3.86328 3.73803L3.92153 3.92206C3.92909 3.94587 3.90193 3.96562 3.88159 3.95106L3.72453 3.83881L3.5675 3.95106C3.54715 3.96559 3.52006 3.94587 3.52756 3.92206L3.58581 3.73803L3.43053 3.62334C3.41043 3.60847 3.42078 3.57662 3.44578 3.57641L3.63881 3.57494L3.69987 3.39181C3.70778 3.36809 3.74131 3.36809 3.74921 3.39181Z" fill="#F5F5F5"/>
<path d="M3.74921 4.3498L3.81028 4.53292L4.00331 4.53439C4.02831 4.53461 4.03865 4.56648 4.01856 4.58133L3.86328 4.69601L3.92153 4.88005C3.92909 4.90386 3.90193 4.92361 3.88159 4.90905L3.72453 4.7968L3.5675 4.90905C3.54715 4.92358 3.52006 4.90386 3.52756 4.88005L3.58581 4.69601L3.43053 4.58133C3.41043 4.56645 3.42078 4.53461 3.44578 4.53439L3.63881 4.53292L3.69987 4.3498C3.70778 4.32611 3.74131 4.32611 3.74921 4.3498Z" fill="#F5F5F5"/>
<path d="M3.74921 5.3078L3.81028 5.49093L4.00331 5.4924C4.02831 5.49262 4.03865 5.52449 4.01856 5.53934L3.86328 5.65403L3.92153 5.83806C3.92909 5.86187 3.90193 5.88162 3.88159 5.86706L3.72453 5.75481L3.5675 5.86706C3.54715 5.88159 3.52006 5.86187 3.52756 5.83806L3.58581 5.65403L3.43053 5.53934C3.41043 5.52446 3.42078 5.49262 3.44578 5.4924L3.63881 5.49093L3.69987 5.3078C3.70778 5.28412 3.74131 5.28412 3.74921 5.3078Z" fill="#F5F5F5"/>
<path d="M3.74921 6.26584L3.81028 6.44896L4.00331 6.45043C4.02831 6.45065 4.03865 6.48252 4.01856 6.49737L3.86328 6.61205L3.92153 6.79608C3.92909 6.8199 3.90193 6.83965 3.88159 6.82508L3.72453 6.71283L3.5675 6.82508C3.54715 6.83962 3.52006 6.8199 3.52756 6.79608L3.58581 6.61205L3.43053 6.49737C3.41043 6.48249 3.42078 6.45065 3.44578 6.45043L3.63881 6.44896L3.69987 6.26584C3.70778 6.24212 3.74131 6.24212 3.74921 6.26584Z" fill="#F5F5F5"/>
<path d="M3.74921 7.22387L3.81028 7.40699L4.00331 7.40846C4.02831 7.40868 4.03865 7.44056 4.01856 7.4554L3.86328 7.57009L3.92153 7.75412C3.92909 7.77793 3.90193 7.79768 3.88159 7.78312L3.72453 7.67087L3.5675 7.78312C3.54715 7.79765 3.52006 7.77793 3.52756 7.75412L3.58581 7.57009L3.43053 7.4554C3.41043 7.44052 3.42078 7.40868 3.44578 7.40846L3.63881 7.40699L3.69987 7.22387C3.70778 7.20012 3.74131 7.20012 3.74921 7.22387Z" fill="#F5F5F5"/>
<path d="M4.49235 3.86152L4.55341 4.04464L4.74644 4.04611C4.77144 4.04633 4.78179 4.0782 4.76169 4.09305L4.60641 4.20773L4.66466 4.39176C4.67222 4.41558 4.64507 4.43533 4.62472 4.42076L4.46769 4.30851L4.31066 4.42076C4.29032 4.43529 4.26322 4.41558 4.27072 4.39176L4.32897 4.20773L4.17369 4.09305C4.1536 4.07817 4.16394 4.04633 4.18894 4.04611L4.38197 4.04464L4.44304 3.86152C4.45094 3.83783 4.48444 3.83783 4.49235 3.86152Z" fill="#F5F5F5"/>
<path d="M4.49235 4.81955L4.55341 5.00267L4.74644 5.00414C4.77144 5.00436 4.78179 5.03623 4.76169 5.05108L4.60641 5.16576L4.66466 5.34979C4.67222 5.3736 4.64507 5.39335 4.62472 5.37879L4.46769 5.26654L4.31066 5.37879C4.29032 5.39332 4.26322 5.37364 4.27072 5.34979L4.32897 5.16576L4.17369 5.05108C4.1536 5.0362 4.16394 5.00436 4.18894 5.00414L4.38197 5.00267L4.44304 4.81955C4.45094 4.79583 4.48444 4.79583 4.49235 4.81955Z" fill="#F5F5F5"/>
<path d="M4.49235 5.77755L4.55341 5.96068L4.74644 5.96215C4.77144 5.96237 4.78179 5.99424 4.76169 6.00909L4.60641 6.12377L4.66466 6.3078C4.67222 6.33162 4.64507 6.35137 4.62472 6.3368L4.46769 6.22455L4.31066 6.3368C4.29032 6.35133 4.26322 6.33162 4.27072 6.3078L4.32897 6.12377L4.17369 6.00909C4.1536 5.99421 4.16394 5.96237 4.18894 5.96215L4.38197 5.96068L4.44304 5.77755C4.45094 5.75384 4.48444 5.75384 4.49235 5.77755Z" fill="#F5F5F5"/>
<path d="M4.49235 6.73554L4.55341 6.91866L4.74644 6.92013C4.77144 6.92035 4.78179 6.95223 4.76169 6.96707L4.60641 7.08176L4.66466 7.26579C4.67222 7.2896 4.64507 7.30935 4.62472 7.29479L4.46769 7.18254L4.31066 7.29479C4.29032 7.30932 4.26322 7.2896 4.27072 7.26579L4.32897 7.08176L4.17369 6.96707C4.1536 6.9522 4.16394 6.92035 4.18894 6.92013L4.38197 6.91866L4.44304 6.73554C4.45094 6.71185 4.48444 6.71185 4.49235 6.73554Z" fill="#F5F5F5"/>
<path d="M5.23551 3.39181L5.29657 3.57494L5.48961 3.57641C5.51461 3.57662 5.52495 3.6085 5.50486 3.62334L5.34958 3.73803L5.40783 3.92206C5.41539 3.94587 5.38823 3.96562 5.36789 3.95106L5.21086 3.83881L5.05382 3.95106C5.03348 3.96559 5.00639 3.94587 5.01389 3.92206L5.07214 3.73803L4.91686 3.62334C4.89676 3.60847 4.9071 3.57662 4.9321 3.57641L5.12514 3.57494L5.1862 3.39181C5.19404 3.36809 5.22761 3.36809 5.23551 3.39181Z" fill="#F5F5F5"/>
<path d="M5.23551 4.3498L5.29657 4.53292L5.48961 4.53439C5.51461 4.53461 5.52495 4.56648 5.50486 4.58133L5.34958 4.69601L5.40783 4.88005C5.41539 4.90386 5.38823 4.92361 5.36789 4.90905L5.21086 4.7968L5.05382 4.90905C5.03348 4.92358 5.00639 4.90386 5.01389 4.88005L5.07214 4.69601L4.91686 4.58133C4.89676 4.56645 4.9071 4.53461 4.9321 4.53439L5.12514 4.53292L5.1862 4.3498C5.19404 4.32611 5.22761 4.32611 5.23551 4.3498Z" fill="#F5F5F5"/>
<path d="M5.23551 5.3078L5.29657 5.49093L5.48961 5.4924C5.51461 5.49262 5.52495 5.52449 5.50486 5.53934L5.34958 5.65403L5.40783 5.83806C5.41539 5.86187 5.38823 5.88162 5.36789 5.86706L5.21086 5.75481L5.05382 5.86706C5.03348 5.88159 5.00639 5.86187 5.01389 5.83806L5.07214 5.65403L4.91686 5.53934C4.89676 5.52446 4.9071 5.49262 4.9321 5.4924L5.12514 5.49093L5.1862 5.3078C5.19404 5.28412 5.22761 5.28412 5.23551 5.3078Z" fill="#F5F5F5"/>
<path d="M5.23551 6.26584L5.29657 6.44896L5.48961 6.45043C5.51461 6.45065 5.52495 6.48252 5.50486 6.49737L5.34958 6.61205L5.40783 6.79608C5.41539 6.8199 5.38823 6.83965 5.36789 6.82508L5.21086 6.71283L5.05382 6.82508C5.03348 6.83962 5.00639 6.8199 5.01389 6.79608L5.07214 6.61205L4.91686 6.49737C4.89676 6.48249 4.9071 6.45065 4.9321 6.45043L5.12514 6.44896L5.1862 6.26584C5.19404 6.24212 5.22761 6.24212 5.23551 6.26584Z" fill="#F5F5F5"/>
<path d="M5.23551 7.22387L5.29657 7.40699L5.48961 7.40846C5.51461 7.40868 5.52495 7.44056 5.50486 7.4554L5.34958 7.57009L5.40783 7.75412C5.41539 7.77793 5.38823 7.79768 5.36789 7.78312L5.21086 7.67087L5.05382 7.78312C5.03348 7.79765 5.00639 7.77793 5.01389 7.75412L5.07214 7.57009L4.91686 7.4554C4.89676 7.44052 4.9071 7.40868 4.9321 7.40846L5.12514 7.40699L5.1862 7.22387C5.19404 7.20012 5.22761 7.20012 5.23551 7.22387Z" fill="#F5F5F5"/>
<path d="M5.97965 3.86152L6.04071 4.04464L6.23374 4.04611C6.25874 4.04633 6.26909 4.0782 6.24899 4.09305L6.09371 4.20773L6.15196 4.39176C6.15952 4.41558 6.13237 4.43533 6.11202 4.42076L5.95499 4.30851L5.79796 4.42076C5.77762 4.43529 5.75053 4.41558 5.75803 4.39176L5.81628 4.20773L5.661 4.09305C5.6409 4.07817 5.65125 4.04633 5.67625 4.04611L5.86928 4.04464L5.93034 3.86152C5.93821 3.83783 5.97178 3.83783 5.97965 3.86152Z" fill="#F5F5F5"/>
<path d="M5.97965 4.81955L6.04071 5.00267L6.23374 5.00414C6.25874 5.00436 6.26909 5.03623 6.24899 5.05108L6.09371 5.16576L6.15196 5.34979C6.15952 5.3736 6.13237 5.39335 6.11202 5.37879L5.95499 5.26654L5.79796 5.37879C5.77762 5.39332 5.75053 5.37364 5.75803 5.34979L5.81628 5.16576L5.661 5.05108C5.6409 5.0362 5.65125 5.00436 5.67625 5.00414L5.86928 5.00267L5.93034 4.81955C5.93821 4.79583 5.97178 4.79583 5.97965 4.81955Z" fill="#F5F5F5"/>
<path d="M5.97965 5.77755L6.04071 5.96068L6.23374 5.96215C6.25874 5.96237 6.26909 5.99424 6.24899 6.00909L6.09371 6.12377L6.15196 6.3078C6.15952 6.33162 6.13237 6.35137 6.11202 6.3368L5.95499 6.22455L5.79796 6.3368C5.77762 6.35133 5.75053 6.33162 5.75803 6.3078L5.81628 6.12377L5.661 6.00909C5.6409 5.99421 5.65125 5.96237 5.67625 5.96215L5.86928 5.96068L5.93034 5.77755C5.93821 5.75384 5.97178 5.75384 5.97965 5.77755Z" fill="#F5F5F5"/>
<path d="M5.97965 6.73554L6.04071 6.91866L6.23374 6.92013C6.25874 6.92035 6.26909 6.95223 6.24899 6.96707L6.09371 7.08176L6.15196 7.26579C6.15952 7.2896 6.13237 7.30935 6.11202 7.29479L5.95499 7.18254L5.79796 7.29479C5.77762 7.30932 5.75053 7.2896 5.75803 7.26579L5.81628 7.08176L5.661 6.96707C5.6409 6.9522 5.65125 6.92035 5.67625 6.92013L5.86928 6.91866L5.93034 6.73554C5.93821 6.71185 5.97178 6.71185 5.97965 6.73554Z" fill="#F5F5F5"/>
<path d="M6.72379 3.39181L6.78485 3.57494L6.97789 3.57641C7.00289 3.57662 7.01323 3.6085 6.99314 3.62334L6.83785 3.73803L6.8961 3.92206C6.90367 3.94587 6.87651 3.96562 6.85617 3.95106L6.69914 3.83881L6.54211 3.95106C6.52176 3.96559 6.49467 3.94587 6.50217 3.92206L6.56042 3.73803L6.40514 3.62334C6.38504 3.60847 6.39539 3.57662 6.42039 3.57641L6.61342 3.57494L6.67448 3.39181C6.68235 3.36809 6.71585 3.36809 6.72379 3.39181Z" fill="#F5F5F5"/>
<path d="M6.72379 4.3498L6.78485 4.53292L6.97789 4.53439C7.00289 4.53461 7.01323 4.56648 6.99314 4.58133L6.83785 4.69601L6.8961 4.88005C6.90367 4.90386 6.87651 4.92361 6.85617 4.90905L6.69914 4.7968L6.54211 4.90905C6.52176 4.92358 6.49467 4.90386 6.50217 4.88005L6.56042 4.69601L6.40514 4.58133C6.38504 4.56645 6.39539 4.53461 6.42039 4.53439L6.61342 4.53292L6.67448 4.3498C6.68235 4.32611 6.71585 4.32611 6.72379 4.3498Z" fill="#F5F5F5"/>
<path d="M6.72379 5.3078L6.78485 5.49093L6.97789 5.4924C7.00289 5.49262 7.01323 5.52449 6.99314 5.53934L6.83785 5.65403L6.8961 5.83806C6.90367 5.86187 6.87651 5.88162 6.85617 5.86706L6.69914 5.75481L6.54211 5.86706C6.52176 5.88159 6.49467 5.86187 6.50217 5.83806L6.56042 5.65403L6.40514 5.53934C6.38504 5.52446 6.39539 5.49262 6.42039 5.4924L6.61342 5.49093L6.67448 5.3078C6.68235 5.28412 6.71585 5.28412 6.72379 5.3078Z" fill="#F5F5F5"/>
<path d="M6.72379 6.26584L6.78485 6.44896L6.97789 6.45043C7.00289 6.45065 7.01323 6.48252 6.99314 6.49737L6.83785 6.61205L6.8961 6.79608C6.90367 6.8199 6.87651 6.83965 6.85617 6.82508L6.69914 6.71283L6.54211 6.82508C6.52176 6.83962 6.49467 6.8199 6.50217 6.79608L6.56042 6.61205L6.40514 6.49737C6.38504 6.48249 6.39539 6.45065 6.42039 6.45043L6.61342 6.44896L6.67448 6.26584C6.68235 6.24212 6.71585 6.24212 6.72379 6.26584Z" fill="#F5F5F5"/>
<path d="M6.72379 7.22387L6.78485 7.40699L6.97789 7.40846C7.00289 7.40868 7.01323 7.44056 6.99314 7.4554L6.83785 7.57009L6.8961 7.75412C6.90367 7.77793 6.87651 7.79768 6.85617 7.78312L6.69914 7.67087L6.54211 7.78312C6.52176 7.79765 6.49467 7.77793 6.50217 7.75412L6.56042 7.57009L6.40514 7.4554C6.38504 7.44052 6.39539 7.40868 6.42039 7.40846L6.61342 7.40699L6.67448 7.22387C6.68235 7.20012 6.71585 7.20012 6.72379 7.22387Z" fill="#F5F5F5"/>
</svg>
