<svg width="16" height="16" viewBox="0 0 16 16" fill="none" xmlns="http://www.w3.org/2000/svg">
<g clip-path="url(#clip0)">
<path d="M16 2.66699H0V13.3338H16V2.66699Z" fill="#F0F0F0"/>
<path d="M9 2.66699H7V7.0003H0V9.0003H7V13.3336H9V9.0003H16V7.0003H9V2.66699Z" fill="#FF4B55"/>
<path d="M12.3066 9.85449L16.0009 11.9069V9.85449H12.3066Z" fill="#41479B"/>
<path d="M9.73926 9.85449L16.0001 13.3327V12.3492L11.5097 9.85449H9.73926Z" fill="#41479B"/>
<path d="M14.3324 13.3323L9.73926 10.7803V13.3323H14.3324Z" fill="#41479B"/>
<path d="M9.73926 9.85449L16.0001 13.3327V12.3492L11.5097 9.85449H9.73926Z" fill="#F0F0F0"/>
<path d="M9.73926 9.85449L16.0001 13.3327V12.3492L11.5097 9.85449H9.73926Z" fill="#FF4B55"/>
<path d="M2.82316 9.85449L0 11.4229V9.85449H2.82316Z" fill="#41479B"/>
<path d="M6.26018 10.2969V13.3328H0.795898L6.26018 10.2969Z" fill="#41479B"/>
<path d="M4.49041 9.85449L0 12.3492V13.3327L6.26088 9.85449H4.49041Z" fill="#FF4B55"/>
<path d="M3.69422 6.14515L0 4.09277V6.14515H3.69422Z" fill="#41479B"/>
<path d="M6.26088 6.14524L0 2.66699V3.65055L4.49041 6.14524H6.26088Z" fill="#41479B"/>
<path d="M1.66797 2.66699L6.26116 5.21899V2.66699H1.66797Z" fill="#41479B"/>
<path d="M6.26088 6.14524L0 2.66699V3.65055L4.49041 6.14524H6.26088Z" fill="#F0F0F0"/>
<path d="M6.26088 6.14524L0 2.66699V3.65055L4.49041 6.14524H6.26088Z" fill="#FF4B55"/>
<path d="M13.1768 6.14363L15.9999 4.5752V6.14363H13.1768Z" fill="#41479B"/>
<path d="M9.73926 5.70198V2.66602H15.2035L9.73926 5.70198Z" fill="#41479B"/>
<path d="M11.5097 6.14524L16.0001 3.65055V2.66699L9.73926 6.14524H11.5097Z" fill="#FF4B55"/>
</g>
<defs>
<clipPath id="clip0">
<rect width="16" height="16" fill="white"/>
</clipPath>
</defs>
</svg>
